SplineFontDB: 3.0
FontName: SortsMillWalbaum-Italic
FullName: Sorts Mill Walbaum Italic
FamilyName: SortsMillWalbaum
Weight: Regular
Copyright: Copyright (c) 2009 Barry Schwartz\n\nPermission is hereby granted, free of charge, to any person\nobtaining a copy of this software and associated documentation\nfiles (the "Software"), to deal in the Software without\nrestriction, including without limitation the rights to use,\ncopy, modify, merge, publish, distribute, sublicense, and/or sell\ncopies of the Software, and to permit persons to whom the\nSoftware is furnished to do so, subject to the following\nconditions:\n\nThe above copyright notice and this permission notice shall be\nincluded in all copies or substantial portions of the Software.\n\nTHE SOFTWARE IS PROVIDED "AS IS", WITHOUT WARRANTY OF ANY KIND,\nEXPRESS OR IMPLIED, INCLUDING BUT NOT LIMITED TO THE WARRANTIES\nOF MERCHANTABILITY, FITNESS FOR A PARTICULAR PURPOSE AND\nNONINFRINGEMENT. IN NO EVENT SHALL THE AUTHORS OR COPYRIGHT\nHOLDERS BE LIABLE FOR ANY CLAIM, DAMAGES OR OTHER LIABILITY,\nWHETHER IN AN ACTION OF CONTRACT, TORT OR OTHERWISE, ARISING\nFROM, OUT OF OR IN CONNECTION WITH THE SOFTWARE OR THE USE OR\nOTHER DEALINGS IN THE SOFTWARE.
UComments: "The starting point for a glyph of Sorts Mill Walbaum is a glyph of Sorts Mill Walbaum Display transformed as follows, in FontForge:+AAoACgAA-Element->Style->Change Weight+AAoA-Embolden by: 36 em units+AAoA-Emboldening hints: CJK+AAoA-Counters: Retain+AAoACgAA-Then raise the letters by 18 units and skew them rightwards by 3 degrees.+AAoACgAA-CJK emboldening thickens all the lines by a certain amount, and so not only emboldens but also reduces contrast. This is what we want FontForge to do." 
Version: 001.000
ItalicAngle: -12
UnderlinePosition: -204
UnderlineWidth: 102
Ascent: 1472
Descent: 576
LayerCount: 3
Layer: 0 0 "Back"  1
Layer: 1 0 "Fore"  0
Layer: 2 0 "backup"  1
NeedsXUIDChange: 1
XUID: [1021 658 797806517 12611104]
FSType: 0
OS2Version: 0

StartChar: y
Encoding: 121 121 0
Width: 1336
VWidth: 18
Flags: HW
LayerCount: 3
Fore
SplineSet
87.7451171875 434 m 1
 46.955078125 438 40.3173828125 464 42.998046875 477 c 0
 43.1552734375 480 153.005859375 916 407.005859375 916 c 0
 659.005859375 916 650.142578125 537 668.088867188 307 c 1
 811.413085938 504 889.331054688 636 1058.70800781 834 c 0
 1104.53808594 888 1144.00097656 935 1218.00097656 935 c 0
 1311.00097656 935 1337.4375 867 1334.66015625 814 c 0
 1330.78222656 740 1267.89941406 685 1215.89941406 685 c 0
 1163.89941406 685 1141.78613281 721 1105.515625 754 c 1
 656.057617188 211 594.00390625 -19 560.493164062 -86 c 0
 353.795898438 -500 204.03515625 -629 -18.96484375 -629 c 0
 -204.96484375 -629 -226.776367188 -530 -223.317382812 -464 c 0
 -220.120117188 -403 -167.342773438 -350 -108.342773438 -350 c 0
 -45.3427734375 -350 -8.4306640625 -428 -11.2607421875 -482 c 0
 -12.361328125 -503 -15.3564453125 -522 -24.4052734375 -542 c 1
 -11.6669921875 -547 3.17578125 -550 20.17578125 -550 c 0
 222.17578125 -550 453.461914062 -182 464.625 31 c 0
 474.896484375 227 425.934570312 762 309.934570312 762 c 0
 220.934570312 762 129.631835938 470 129.631835938 470 c 0
 121.688476562 452 111.745117188 434 87.7451171875 434 c 1
EndSplineSet
EndChar

StartChar: Q
Encoding: 81 81 1
Width: 1593
VWidth: 0
Flags: HW
HStem: -634 54<814.334 1108> -48 58<469.606 776.47> 1500 50<813.598 1091.41>
VStem: 82 214<313.466 678.395> 1300 205<810.332 1218.68>
LayerCount: 3
Fore
SplineSet
296 358 m 0
 296 96 412 10 588 10 c 0
 774 10 935 80 1037 216 c 0
 1185 412 1300 978 1300 1074 c 0
 1300 1466 1077 1500 953 1500 c 0
 815 1500 696 1438 599 1332 c 0
 490 1213 296 665 296 358 c 0
82 569 m 0
 82 941 425 1550 931 1550 c 0
 1389 1550 1505 1240 1505 952 c 0
 1505 809 1462 588 1397 466 c 0
 1214 125 950 -48 652 -48 c 0
 591 -48 534 -44 468 -38 c 1
 545 -110 596 -142 664 -222 c 0
 765 -341 717 -450 812 -558 c 0
 830 -578 854 -580 883 -580 c 2
 1108 -580 l 1
 1108 -634 l 1
 875 -634 l 2
 418 -634 519 -150 415 -36 c 1
 391 -8 368 12 346 29 c 0
 345 30 82 169 82 569 c 0
EndSplineSet
EndChar

StartChar: O
Encoding: 79 79 2
Width: 1545
VWidth: 0
Flags: HW
HStem: -32 46<574.291 864.477> 1493 35<885.881 1134.72>
VStem: 161 225<295.146 669.917> 1375 195<852.754 1209.76>
LayerCount: 3
Fore
SplineSet
386 352 m 0
 386 90 547 14 709 14 c 0
 895 14 983 80 1085 216 c 0
 1233 412 1375 951 1375 1138 c 0
 1375 1400 1183 1493 1020 1493 c 0
 826 1493 666 1445 487 883 c 0
 429 701 386 504 386 352 c 0
161 540 m 0
 161 893 498 1528 1008 1528 c 0
 1416 1528 1570 1249 1570 973 c 0
 1570 337 1021 -32 728 -32 c 0
 622 -32 161 26 161 540 c 0
EndSplineSet
EndChar

StartChar: A
Encoding: 65 65 3
Width: 1694
VWidth: 0
Flags: HW
HStem: 0 54<72 216 296 576 824 1058 1268 1500> 636 54<864 1226>
LayerCount: 3
Fore
SplineSet
864 690 m 1
 1242 690 l 1
 1423 1306 l 1
 864 690 l 1
72 0 m 1
 72 54 l 1
 216 54 l 1
 1417 1375 1535 1502 1584 1502 c 0
 1591 1502 1606 1498 1606 1482 c 0
 1606 1399 1555 1192 1268 54 c 1
 1500 54 l 1
 1500 0 l 1
 824 0 l 1
 824 54 l 1
 1058 54 l 1
 1226 636 l 1
 821 636 l 1
 296 54 l 1
 576 54 l 1
 576 0 l 1
 72 0 l 1
EndSplineSet
EndChar

StartChar: x
Encoding: 120 120 4
Width: 1308
VWidth: 18
Flags: HW
LayerCount: 3
Fore
SplineSet
1179.6953125 185 m 0
 1177.28515625 139 918.74609375 -43 720.74609375 -43 c 0
 561.74609375 -43 520.987304688 57 512.02734375 115 c 1
 455.458984375 66 326.375 -31 209.375 -31 c 0
 121.375 -31 45.51953125 29 49.8701171875 112 c 0
 53.748046875 186 105.629882812 241 178.629882812 241 c 0
 233.629882812 241 266.642578125 184 264.1796875 137 c 0
 262.607421875 107 254.297851562 82 246.301757812 63 c 1
 304.930664062 75 403.341796875 121 512.578125 240 c 0
 556.09375 288 715.44921875 581 723.782226562 740 c 0
 727.083007812 803 704.026367188 821 668.026367188 821 c 0
 508.026367188 821 390.008789062 668 371.431640625 657 c 0
 365.22265625 653 358.169921875 652 352.169921875 652 c 0
 332.169921875 652 315.008789062 668 316.00390625 687 c 0
 318.362304688 732 494.900390625 914 712.900390625 914 c 0
 854.900390625 914 906.450195312 810 924.620117188 756 c 1
 1052.75195312 873 1174.84863281 913 1241.84863281 913 c 0
 1313.84863281 913 1371.90917969 876 1366.19628906 767 c 0
 1362.47558594 696 1341.64550781 642 1267.64550781 642 c 0
 1203.64550781 642 1180.73828125 701 1171.34570312 808 c 1
 1079.98242188 782 993.418945312 714 956.431640625 657 c 0
 839.103515625 479 723.856445312 169 721.499023438 124 c 0
 718.983398438 76 771.40625 65 783.40625 65 c 0
 937.40625 65 1104.94921875 228 1134.94921875 228 c 0
 1148.94921875 228 1181.11035156 212 1179.6953125 185 c 0
EndSplineSet
EndChar

StartChar: z
Encoding: 122 122 5
Width: 1117
VWidth: 18
Flags: HW
LayerCount: 3
Fore
SplineSet
236.461914062 524 m 1
 208.619140625 527 186.248046875 539 187.557617188 564 c 0
 187.71484375 567 187.872070312 570 189.029296875 573 c 0
 191.7109375 586 190.186523438 576 190.186523438 576 c 2
 193.868164062 589 206.23046875 615 216.59375 641 c 2
 308.333007812 865 l 1
 323.0625 898 334.5859375 908 366.5859375 908 c 0
 508.5859375 908 649.5859375 908 788.5859375 908 c 0
 857.5859375 908 926.5859375 908 994.5859375 908 c 0
 1028.5859375 908 1031.0625 898 1043.28027344 864 c 0
 1045.0703125 860 1045.86132812 856 1045.65136719 852 c 0
 1044.44628906 829 1016.29296875 807 992.087890625 784 c 1
 361.057617188 211 l 1
 385.3203125 216 418.634765625 222 449.634765625 222 c 0
 625.634765625 222 697.087890625 78 798.087890625 78 c 1
 866.192382812 80 902.188476562 99 919.921875 113 c 1
 900.865234375 131 871.647460938 165 874.58203125 221 c 0
 877.307617188 273 926.770507812 320 981.770507812 320 c 0
 1016.77050781 320 1089.19824219 290 1084.74316406 205 c 0
 1078.71679688 90 939.375 -31 677.375 -31 c 0
 466.375 -31 392.354492188 64 274.354492188 64 c 1
 165.197265625 61 138.375 -31 94.375 -31 c 0
 85.375 -31 47.109375 -17 48.7333984375 14 c 0
 49.4150390625 27 56.25390625 43 75.2490234375 62 c 1
 782.052734375 707 l 1
 349.052734375 707 l 2
 338.052734375 707 343 706 341 706 c 1
 339.895507812 704 341.104492188 708 333.109375 689 c 2
 295.549804688 602 l 2
 277.19140625 557 267.461914062 524 236.461914062 524 c 1
EndSplineSet
EndChar

StartChar: w
Encoding: 119 119 6
Width: 1604
VWidth: 18
Flags: HW
LayerCount: 3
Fore
SplineSet
1070.42871094 905 m 2
 1094.42871094 905 1131.48144531 906 1129.28027344 864 c 0
 1128.75585938 854 1126.91796875 838 1116.71191406 815 c 2
 1027.39257812 599 l 1
 880.525390625 239 857.328125 178 854.55078125 125 c 0
 852.559570312 87 866.354492188 64 925.354492188 64 c 0
 1173.35449219 64 1495.70996094 357 1508.33984375 598 c 0
 1512.63769531 680 1349.47558594 696 1354.76855469 797 c 0
 1358.38476562 866 1415.27148438 902 1476.27148438 902 c 0
 1552.27148438 902 1636.23242188 844 1630.2578125 730 c 0
 1610.34277344 350 1253.79492188 -23 870.794921875 -23 c 0
 687.794921875 -23 656.7734375 72 660.494140625 143 c 0
 660.756835938 148 660.965820312 152 661.17578125 156 c 1
 587.559570312 87 436.323242188 -32 267.323242188 -32 c 0
 122.323242188 -32 78.6728515625 51 84.123046875 155 c 0
 88.7353515625 243 125.818359375 340 146.120117188 403 c 2
 250.833984375 741 l 2
 258.249023438 768 266.559570312 793 273.869140625 818 c 1
 113.869140625 818 l 1
 85.0791015625 822 73.126953125 842 74.17578125 862 c 0
 75.380859375 885 93.5859375 908 120.5859375 908 c 2
 459.5859375 908 l 2
 471.5859375 908 503.638671875 909 501.856445312 875 c 0
 499.026367188 821 268.578125 240 262.55078125 125 c 0
 260.559570312 87 287.249023438 62 334.249023438 62 c 0
 404.249023438 62 521.02734375 115 648.150390625 270 c 0
 694.084960938 326 735.27734375 406 776.465820312 505 c 2
 910.340820312 827 l 2
 929.856445312 875 936.428710938 905 1000.42871094 905 c 2
 1070.42871094 905 l 2
EndSplineSet
EndChar

StartChar: v
Encoding: 118 118 7
Width: 1231
VWidth: 18
Flags: HW
LayerCount: 3
Fore
SplineSet
106.650390625 623 m 0
 109.217773438 672 315.21484375 920 553.21484375 920 c 0
 622.21484375 920 698.009765625 897 693.817382812 817 c 1
 688.358398438 751 451.43359375 180 446.55078125 125 c 1
 446.55078125 125 l 2
 444.559570312 87 457.354492188 64 518.354492188 64 c 0
 774.354492188 64 1075.08105469 345 1086.19140625 557 c 0
 1093.21386719 691 939.217773438 672 945.821289062 798 c 0
 949.594726562 870 1015.42871094 905 1063.42871094 905 c 0
 1153.42871094 905 1232.34570312 808 1226.58105469 698 c 0
 1219.87207031 570 1105.75195312 167 707.047851562 20 c 0
 619.37109375 -12 529.427734375 -30 449.427734375 -30 c 0
 321.427734375 -30 230.047851562 20 236.442382812 142 c 0
 240.686523438 223 443.685546875 700 446.987304688 763 c 0
 448.03515625 783 441.821289062 798 436.821289062 798 c 0
 343.821289062 798 230.846679688 684 176.23046875 615 c 0
 165.497070312 601 151.868164062 589 136.868164062 589 c 0
 119.868164062 589 105.70703125 605 106.650390625 623 c 0
EndSplineSet
EndChar

StartChar: u
Encoding: 117 117 8
Width: 1312
VWidth: 18
Flags: HW
LayerCount: 3
Fore
SplineSet
1232.99707031 248 m 0
 1230.53417969 201 1036.42773438 -30 822.427734375 -30 c 0
 738.427734375 -30 689.418945312 8 692.40625 65 c 0
 694.345703125 102 712.756835938 148 728.009765625 191 c 1
 586.934570312 56 401.532226562 -28 267.532226562 -28 c 0
 179.532226562 -28 96.3671875 7 103.599609375 145 c 0
 107.58203125 221 137.3515625 312 166.120117188 403 c 2
 273.833984375 741 l 2
 281.249023438 768 289.559570312 793 296.869140625 818 c 1
 133.869140625 818 l 1
 123.974609375 820 94.921875 819 97.17578125 862 c 0
 99.009765625 897 122.5859375 908 138.5859375 908 c 2
 462.5859375 908 l 2
 472.5859375 908 516.638671875 909 514.647460938 871 c 0
 511.817382812 817 286.428710938 199 282.55078125 125 c 0
 281.03125 96 296.983398438 76 355.983398438 76 c 0
 513.983398438 76 682.892578125 246 739.452148438 333 c 1
 849.67578125 509 961.123046875 861 982.380859375 885 c 0
 996.219726562 901 1015.5859375 908 1046.5859375 908 c 2
 1115.5859375 908 l 2
 1143.5859375 908 1175.5859375 908 1172.28027344 864 c 1
 1172.28027344 864 1172.28027344 864 1172.22753906 863 c 0
 1161.24511719 787 923.787109375 244 916.870117188 112 c 0
 915.6640625 89 919.349609375 83 927.349609375 83 c 0
 947.349609375 83 1030.13183594 117 1126.84375 226 c 0
 1166.20214844 271 1170.09375 288 1193.09375 288 c 1
 1225.7265625 281 1233.73046875 262 1232.99707031 248 c 0
1172.28027344 864 m 1
 1172.22753906 863 1172.17578125 862 1172.17578125 862 c 2
 1172.28027344 864 l 1
EndSplineSet
EndChar

StartChar: t
Encoding: 116 116 9
Width: 751
VWidth: 18
Flags: HW
LayerCount: 3
Fore
SplineSet
624.412109375 275 m 1
 630.359375 274 662.150390625 270 660.263671875 234 c 0
 659.686523438 223 656.21484375 214 647.848632812 207 c 0
 543.921875 113 395.056640625 -18 227.056640625 -18 c 0
 115.056640625 -18 77.7294921875 33 81.345703125 102 c 0
 84.3330078125 159 108.896484375 227 139.3515625 312 c 2
 324.869140625 818 l 1
 175.869140625 818 l 2
 159.869140625 818 133.764648438 816 135.651367188 852 c 0
 138.795898438 912 168.534179688 907 204.5859375 908 c 1
 358.5859375 908 l 1
 458.0546875 1165 l 1
 478.413085938 1210 505.413085938 1210 540.413085938 1210 c 2
 543.413085938 1210 l 1
 607.413085938 1210 l 2
 620.413085938 1210 662.518554688 1212 660.526367188 1174 c 0
 660.317382812 1170 658.950195312 1163 655.42578125 1153 c 2
 559.5859375 908 l 1
 711.5859375 908 l 2
 724.5859375 908 759.69140625 910 757.8046875 874 c 0
 754.921875 819 728.869140625 818 703.869140625 818 c 2
 525.869140625 818 l 1
 439.553710938 583 l 1
 354.1328125 346 284.170898438 175 280.555664062 106 c 0
 279.40234375 84 285.7734375 72 299.7734375 72 c 0
 345.7734375 72 457.336914062 140 599.887695312 265 c 0
 601.993164062 267 609.412109375 275 624.412109375 275 c 1
EndSplineSet
EndChar

StartChar: a
Encoding: 97 97 10
Width: 1258
VWidth: 18
Flags: HW
LayerCount: 3
Fore
SplineSet
1228.25488281 272 m 0
 1226.578125 240 1057.05664062 -18 804.056640625 -18 c 0
 749.056640625 -18 691.314453125 6 696.29296875 101 c 0
 697.184570312 118 699.970703125 133 702.80859375 149 c 1
 631.297851562 82 485.427734375 -30 312.427734375 -30 c 0
 117.427734375 -30 67.7607421875 129 75.5166015625 277 c 0
 93.1787109375 614 446.529296875 926 696.529296875 926 c 0
 859.529296875 926 907.5546875 812 921.415039062 733 c 1
 1000.32421875 903 990.529296875 926 1064.52929688 926 c 2
 1125.52929688 926 l 6
 1143.52929688 926 1180.47753906 925 1178.59082031 889 c 0
 1175.2890625 826 913.459960938 295 905.389648438 141 c 0
 903.974609375 114 909.241210938 100 929.241210938 100 c 0
 1033.24121094 100 1156.83105469 283 1169.45996094 295 c 0
 1177.87988281 303 1186.03710938 306 1194.03710938 306 c 0
 1213.03710938 306 1229.19824219 290 1228.25488281 272 c 0
263.546875 144 m 0
 259.40625 65 290.991210938 38 341.991210938 38 c 0
 436.991210938 38 596.970703125 133 696.20703125 252 c 0
 804.01953125 382 845.125976562 613 847.537109375 659 c 0
 851.88671875 742 808.546875 850 719.546875 850 c 0
 534.546875 850 276.596679688 393 263.546875 144 c 0
EndSplineSet
EndChar

StartChar: b
Encoding: 98 98 11
Width: 1185
VWidth: 18
Flags: HW
LayerCount: 3
Fore
SplineSet
753.942382812 1521.00292969 m 2
 767.817382812 1521.00292969 801.666015625 1520.11132812 799.982421875 1488 c 0
 799.40625 1477 797.091796875 1471 783.205078125 1435 c 1
 575.651367188 852 l 1
 645.95703125 896 784.8359375 970 919.8359375 970 c 0
 1090.8359375 970 1188.02636719 821 1179.69433594 662 c 0
 1159.67382812 280 772.484375 -48 454.484375 -48 c 0
 313.484375 -48 122.471679688 9 129.494140625 143 c 0
 135.783203125 263 239.79296875 454 584.995117188 1431 c 1
 397.995117188 1431 l 2
 369.995117188 1431 360.833984375 1447 361.77734375 1465 c 2
 362.0390625 1470 l 2
 364.607421875 1519 397.711914062 1521 411.711914062 1521 c 2
 753.942382812 1521.00292969 l 2
331.223632812 176 m 0
 325.040039062 58 368.833984375 35 440.833984375 35 c 0
 693.833984375 35 846.076171875 364 884.216796875 443 c 0
 957.287109375 597 984.109375 689 987.358398438 751 c 0
 992.598632812 851 931.909179688 876 870.909179688 876 c 0
 771.909179688 876 630.345703125 808 531.318359375 693 c 0
 473.807617188 626 334.997070312 248 331.223632812 176 c 0
EndSplineSet
EndChar

StartChar: c
Encoding: 99 99 12
Width: 984
VWidth: 18
Flags: HW
LayerCount: 3
Fore
SplineSet
820.485351562 181 m 0
 817.603515625 126 590.537109375 -47 409.537109375 -47 c 0
 144.537109375 -47 46.1845703125 118 56.666015625 318 c 0
 71.4970703125 601 311.049804688 955 673.049804688 955 c 0
 841.049804688 955 966.17578125 862 958.943359375 724 c 0
 956.217773438 672 934.33984375 598 866.33984375 598 c 0
 798.33984375 598 784.588867188 660 786.528320312 697 c 0
 787.3671875 713 793.987304688 763 794.825195312 779 c 0
 797.6171875 832.265625 757.08203125 868 685.490234375 868 c 0
 567.4375 867 504.345703125 808 438.890625 723 c 0
 326.291992188 578 269.8671875 360 264.625976562 260 c 0
 255.716796875 90 315.201171875 42 417.201171875 42 c 1
 643.358398438 45 737.791992188 225 781.791992188 225 c 1
 812.58203125 221 821.376953125 198 820.485351562 181 c 0
EndSplineSet
EndChar

StartChar: d
Encoding: 100 100 13
Width: 1253
VWidth: -2
Flags: HW
LayerCount: 3
Fore
SplineSet
672.328125 884 m 0
 506.328125 884 382.122070312 632 331.19921875 519 c 1
 264.181640625 366 242.936523438 285 239.84375 226 c 0
 235.651367188 146 254.51171875 67 353.51171875 67 c 0
 485.51171875 67 682.743164062 205 732.918945312 361 c 0
 736.547851562 373 844.323242188 674 846 706 c 0
 850.245117188 787 772.328125 884 672.328125 884 c 0
1225.78320312 263 m 0
 1223.94921875 228 1020.95605469 -39 796.956054688 -39 c 0
 699.956054688 -39 664.415039062 27 667.978515625 95 c 0
 668.712890625 109 669.499023438 124 672.1796875 137 c 1
 561.782226562 34 435.846679688 -22 334.846679688 -22 c 0
 159.846679688 -22 46.66015625 108 55.8837890625 284 c 0
 72.4443359375 600 332.254882812 978 652.254882812 978 c 0
 770.254882812 978 851.69140625 910 892.446289062 829 c 1
 1100.99511719 1431 l 1
 886.995117188 1431 l 2
 870.995117188 1431 841.15234375 1434 842.987304688 1469 c 2
 843.249023438 1474 l 2
 844.716796875 1502 862.711914062 1521 888.711914062 1521 c 2
 1252.71191406 1521 l 2
 1268.71191406 1521 1303.81738281 1523 1301.61621094 1481 c 1
 1291.21386719 1397 874.625976562 260 868.075195312 135 c 0
 866.345703125 102 871.720703125 71 901.720703125 71 c 0
 995.720703125 71 1146.7265625 281 1160.25097656 291 c 0
 1168.56542969 297 1178.77441406 301 1189.77441406 301 c 1
 1215.51269531 296 1226.62207031 279 1225.78320312 263 c 0
1301.61621094 1481 m 1
 1301.51074219 1479 1301.45898438 1478 1301.45898438 1478 c 2
 1301.45898438 1478 1301.56347656 1480 1301.61621094 1481 c 1
EndSplineSet
EndChar

StartChar: e
Encoding: 101 101 14
Width: 926
VWidth: 18
Flags: HW
LayerCount: 3
Fore
SplineSet
846.997070312 248 m 0
 844.166992188 194 588.270507812 -33 323.270507812 -33 c 0
 173.270507812 -33 59.0478515625 20 70.4208984375 237 c 0
 88.7109375 586 428.58203125 927 758.58203125 927 c 0
 874.58203125 927 928.965820312 858 924.7734375 778 c 0
 912.614257812 546 488.845703125 455 315.6484375 394 c 1
 303.390625 370 282.088867188 307 277.94921875 228 c 0
 271.764648438 110 337.826171875 73 403.826171875 73 c 0
 580.826171875 73 780.46484375 276 781.516601562 277 c 0
 790.883789062 284 799.041015625 287 809.041015625 287 c 0
 834.041015625 287 847.993164062 267 846.997070312 248 c 0
709.393554688 828 m 0
 544.393554688 828 402.182617188 595 352.994140625 496 c 1
 498.1953125 538 768.1171875 651 773.934570312 762 c 0
 775.139648438 785 763.393554688 828 709.393554688 828 c 0
EndSplineSet
EndChar

StartChar: f
Encoding: 102 102 15
Width: 952
VWidth: 18
Flags: HW
LayerCount: 3
Fore
SplineSet
176.869140625 818 m 2
 160.869140625 818 131.764648438 816 133.965820312 858 c 0
 135.43359375 886 145.5859375 908 181.5859375 908 c 2
 425.5859375 908 l 1
 453.037109375 1012 614.43359375 1592 1003.43359375 1592 c 0
 1162.43359375 1592 1209.30175781 1475 1206.20898438 1416 c 0
 1203.1171875 1357 1155.65429688 1310 1112.65429688 1310 c 0
 1014.65429688 1310 1023.72949219 1445 1026.03125 1508 c 1
 730.296875 1494 703.745117188 1140 647.5859375 908 c 1
 882.5859375 908 l 1
 899.534179688 907 927.5859375 908 925.541992188 869 c 0
 924.965820312 858 921.869140625 818 877.869140625 818 c 2
 626.869140625 818 l 1
 439.227539062 157 361.698242188 -63 200.854492188 -289 c 0
 186.805664062 -309 20.7607421875 -577 -225.239257812 -577 c 0
 -301.239257812 -577 -478.405273438 -542 -471.068359375 -402 c 0
 -466.403320312 -313 -409.8359375 -264 -353.8359375 -264 c 0
 -300.8359375 -264 -252.194335938 -309 -256.176757812 -385 c 1
 -260.955078125 -438 -274.526367188 -468 -289.469726562 -486 c 1
 -272.836914062 -493 -247.098632812 -498 -216.098632812 -498 c 0
 110.901367188 -498 274.46875 257 401.869140625 818 c 1
 176.869140625 818 l 2
EndSplineSet
EndChar

StartChar: g
Encoding: 103 103 16
Width: 1334
VWidth: 18
Flags: HW
LayerCount: 3
Fore
SplineSet
762.651367188 852 m 0
 611.651367188 852 494.375 675 487.090820312 536 c 0
 481.849609375 436 536.125 384 594.125 384 c 0
 734.125 384 850.186523438 576 857.62890625 718 c 0
 860.825195312 779 844.651367188 852 762.651367188 852 c 0
876.461914062 -182 m 0
 878.348632812 -146 873.48046875 -29 717.48046875 -29 c 0
 579.48046875 -29 358.1171875 -55 254.331054688 -70 c 0
 140.440429688 -87 72.7763671875 -176 67.90234375 -269 c 0
 59.412109375 -431 209.32421875 -509 391.32421875 -509 c 0
 618.32421875 -509 866.294921875 -376 876.461914062 -182 c 0
353.443359375 371 m 0
 235.443359375 371 190.3515625 312 188.254882812 272 c 0
 185.3203125 216 233.123046875 155 304.123046875 155 c 0
 446.123046875 155 525.32421875 197 743.32421875 197 c 0
 939.32421875 197 1026.29785156 82 1017.38769531 -88 c 0
 1001.50878906 -391 705.817382812 -595 338.817382812 -595 c 0
 31.8173828125 -595 -79.478515625 -448 -71.669921875 -299 c 0
 -62.7080078125 -128 74.85546875 -60 167.427734375 -30 c 1
 107.3671875 7 59.1923828125 80 62.7568359375 148 c 0
 66.1103515625 212 97.4833984375 429 309.53125 449 c 1
 298.68359375 471 286.518554688 506 288.771484375 549 c 0
 301.506835938 792 569.315429688 941 781.315429688 941 c 0
 877.315429688 941 983.905273438 895 1024.50292969 811 c 1
 1062.546875 850 1145.58203125 927 1222.58203125 927 c 0
 1296.58203125 927 1339.85644531 875 1336.29296875 807 c 0
 1333.56835938 755 1298.3671875 713 1254.3671875 713 c 1
 1170.68164062 719 1187.76464844 816 1159.76464844 816 c 0
 1158.76464844 816 1158.76464844 816 1157.76464844 816 c 0
 1129.45019531 810 1061.25390625 749 1056.84277344 703 c 0
 1033.10351562 479 829.565429688 297 583.565429688 297 c 0
 451.565429688 297 400.443359375 371 353.443359375 371 c 0
EndSplineSet
EndChar

StartChar: h
Encoding: 104 104 17
Width: 1361
VWidth: 18
Flags: HW
LayerCount: 3
Fore
SplineSet
1269.37695312 198 m 0
 1267.33300781 159 1114.90332031 -40 857.903320312 -40 c 0
 779.903320312 -40 697.213867188 -15 701.249023438 62 c 0
 705.599609375 145 955.327148438 655 959.991210938 744 c 0
 963.188476562 805 937.079101562 822 896.079101562 822 c 0
 657.079101562 822 452.828125 531 417.53515625 430 c 0
 370.565429688 297 294.345703125 102 273.515625 48 c 0
 260.890625 17 237 0 214 0 c 2
 129 0 l 2
 121 0 78 0 80.0439453125 39 c 0
 83.03125 96 205.12890625 365 585.995117188 1431 c 1
 373.995117188 1431 l 2
 345.995117188 1431 336.833984375 1447 337.77734375 1465 c 2
 338.0390625 1470 l 2
 340.607421875 1519 373.711914062 1521 387.711914062 1521 c 2
 749.711914062 1521 l 2
 761.711914062 1521 799.764648438 1522 797.982421875 1488 c 0
 797.40625 1477 793.830078125 1466 781.205078125 1435 c 2
 513.26171875 711 l 1
 597.506835938 792 760.163085938 919 940.163085938 919 c 0
 1080.16308594 919 1177.86523438 837 1171.47167969 715 c 0
 1163.76757812 568 937.227539062 157 933.40234375 84 c 0
 932.720703125 71 938.301757812 63 963.301757812 63 c 0
 1054.30175781 63 1171.0625 192 1195.68652344 223 c 0
 1208.52539062 239 1215.578125 240 1228.578125 240 c 0
 1246.578125 240 1270.58203125 221 1269.37695312 198 c 0
EndSplineSet
EndChar

StartChar: i
Encoding: 105 105 18
Width: 639
VWidth: 18
Flags: HW
LayerCount: 3
Fore
SplineSet
601.106445312 231 m 0
 598.538085938 182 405.11328125 -36 197.11328125 -36 c 0
 119.11328125 -36 77.052734375 1 81.2978515625 82 c 0
 83.65625 127 120.372070312 217 332.869140625 818 c 1
 163.869140625 818 l 1
 135.079101562 822 123.126953125 842 124.17578125 862 c 0
 125.380859375 885 143.5859375 908 170.5859375 908 c 2
 501.5859375 908 l 2
 514.5859375 908 546.69140625 910 544.594726562 870 c 1
 544.541992188 869 l 2
 544.490234375 868 l 0
 532.611328125 794 290.900390625 208 285.03125 96 c 0
 284.140625 79 288.983398438 76 302.983398438 76 c 0
 331.983398438 76 414.607421875 107 523.735351562 243 c 0
 542.993164062 267 555.09765625 269 563.09765625 269 c 1
 593.783203125 263 601.83984375 245 601.106445312 231 c 0
569.881835938 1467 m 0
 634.881835938 1467 685.104492188 1414 681.750976562 1350 c 0
 678.396484375 1286 622.619140625 1233 557.619140625 1233 c 0
 492.619140625 1233 442.396484375 1286 445.750976562 1350 c 0
 449.104492188 1414 504.881835938 1467 569.881835938 1467 c 0
544.594726562 870 m 1
 544.541992188 869 544.490234375 868 544.490234375 868 c 0
 544.490234375 868 544.541992188 869 544.594726562 870 c 1
EndSplineSet
EndChar

StartChar: j
Encoding: 106 106 19
Width: 675
VWidth: 18
Flags: HW
LayerCount: 3
Fore
SplineSet
675.881835938 1467 m 0
 740.881835938 1467 791.104492188 1414 787.750976562 1350 c 0
 784.396484375 1286 728.619140625 1233 663.619140625 1233 c 0
 598.619140625 1233 548.396484375 1286 551.750976562 1350 c 0
 555.104492188 1414 610.881835938 1467 675.881835938 1467 c 0
250.869140625 818 m 1
 219.079101562 822 207.126953125 842 208.17578125 862 c 0
 209.380859375 885 228.5859375 908 257.5859375 908 c 2
 607.5859375 908 l 2
 610.5859375 908 651.69140625 910 650.06640625 879 c 0
 649.018554688 859 387.599609375 145 258.67578125 -197 c 0
 162.258789062 -453 159.32421875 -509 -54.1865234375 -576 c 1
 -130.549804688 -602 -205.073242188 -612 -242.073242188 -612 c 0
 -284.073242188 -612 -296.97265625 -591 -295.872070312 -570 c 0
 -290.526367188 -468 -102.235351562 -596 -12.49609375 -372 c 1
 79.0341796875 -152 41.7890625 -233 139.625 31 c 2
 432.869140625 818 l 1
 250.869140625 818 l 1
EndSplineSet
EndChar

StartChar: k
Encoding: 107 107 20
Width: 1199
VWidth: 18
Flags: HW
LayerCount: 3
Fore
SplineSet
1152.90917969 170 m 0
 1151.23242188 138 990.7421875 -24 774.7421875 -24 c 0
 676.7421875 -24 632.153320312 22 636.555664062 106 c 0
 641.5859375 202 723.447265625 352 728.374023438 446 c 0
 730.889648438 494 712.041992188 516 662.041992188 516 c 0
 593.041992188 516 525.103515625 479 485.583984375 450 c 0
 387.915039062 380 377.560546875 316 273.515625 48 c 0
 261.890625 17 237 0 214 0 c 2
 139 0 l 1
 115.052734375 1 88.4189453125 8 89.9912109375 38 c 0
 92.087890625 78 180.774414062 301 295.178710938 614 c 1
 587.995117188 1431 l 1
 373.995117188 1431 l 2
 345.995117188 1431 336.833984375 1447 337.77734375 1465 c 2
 338.0390625 1470 l 2
 340.607421875 1519 373.711914062 1521 387.711914062 1521 c 2
 753.711914062 1521 l 2
 765.711914062 1521 803.764648438 1522 801.982421875 1488 c 0
 801.40625 1477 792.305664062 1456 785.205078125 1435 c 2
 474.243164062 558 l 1
 552.122070312 632 787.686523438 929 1036.68652344 929 c 0
 1141.68652344 929 1182.54199219 869 1179.34570312 808 c 0
 1176.25390625 749 1131.05664062 688 1066.05664062 688 c 0
 980.056640625 688 944.66796875 776 932.764648438 816 c 1
 824.825195312 779 705.685546875 700 614.287109375 597 c 1
 658.811523438 607 711.23046875 615 761.23046875 615 c 0
 911.23046875 615 932.1953125 538 929.469726562 486 c 0
 920.98046875 324 832.751953125 167 829.345703125 102 c 0
 828.297851562 82 835.720703125 71 854.720703125 71 c 0
 944.720703125 71 1095.84863281 207 1095.84863281 207 c 0
 1099.953125 209 1106.05761719 211 1112.05761719 211 c 0
 1133.05761719 211 1154.00976562 191 1152.90917969 170 c 0
EndSplineSet
EndChar

StartChar: l
Encoding: 108 108 21
Width: 764
VWidth: 18
Flags: HW
LayerCount: 3
Fore
SplineSet
690.311523438 254 m 0
 689.106445312 231 551.00390625 -19 247.00390625 -19 c 0
 146.00390625 -19 114.625 31 118.03125 96 c 0
 119.760742188 129 131.594726562 164 144.481445312 200 c 2
 575.995117188 1431 l 1
 373.995117188 1431 l 2
 345.995117188 1431 336.833984375 1447 337.77734375 1465 c 2
 338.0390625 1470 l 2
 340.607421875 1519 373.711914062 1521 387.711914062 1521 c 2
 731.711914062 1521 l 2
 735.711914062 1521 778.764648438 1522 777.139648438 1491 c 0
 776.14453125 1472 737.798828125 1370 406.434570312 409 c 0
 365.145507812 289 320.328125 178 317.760742188 129 c 0
 316.345703125 102 324.716796875 90 367.716796875 90 c 0
 461.716796875 90 583.000976562 229 613.150390625 270 c 0
 628.198242188 290 639.35546875 293 653.35546875 293 c 1
 682.09375 288 691.044921875 268 690.311523438 254 c 0
EndSplineSet
EndChar

StartChar: m
Encoding: 109 109 22
Width: 1883
VWidth: 18
Flags: HW
LayerCount: 3
Fore
SplineSet
654.411132812 46 m 0
 657.345703125 102 942.270507812 673 947.982421875 782 c 0
 949.66015625 814 939.55078125 831 893.55078125 831 c 0
 721.55078125 831 513.021484375 611 444.260742188 482 c 0
 346.669921875 299 251.201171875 42 235.153320312 22 c 0
 229.786132812 15 216 0 185 0 c 2
 107 0 l 2
 93.052734375 1 53 0 55.201171875 42 c 0
 57.2978515625 82 94.2275390625 157 359.869140625 818 c 1
 191.869140625 818 l 1
 163.079101562 822 151.126953125 842 152.17578125 862 c 0
 153.380859375 885 171.5859375 908 198.5859375 908 c 2
 524.5859375 908 l 2
 534.5859375 908 570.638671875 909 568.751953125 873 c 0
 568.0703125 860 537.087890625 784 492.584960938 679 c 1
 585.66796875 776 753.21484375 920 926.21484375 920 c 0
 1104.21484375 920 1127.18359375 824 1123.83007812 760 c 0
 1122.67675781 738 1118.47167969 715 1113.42382812 695 c 1
 1201.61621094 775 1387.11035156 918 1593.11035156 918 c 0
 1717.11035156 918 1744.23242188 844 1740.09179688 765 c 0
 1731.91601562 609 1497.00585938 210 1491.76464844 110 c 0
 1490.82128906 92 1495.45507812 85 1518.45507812 85 c 0
 1566.45507812 85 1666.33691406 140 1749.20214844 271 c 0
 1763.35546875 293 1779.82714844 302 1793.82714844 302 c 0
 1814.82714844 302 1831.88378906 284 1830.94042969 266 c 0
 1829.73535156 243 1713.47558594 -10 1427.47558594 -10 c 0
 1352.47558594 -10 1274.83886719 16 1279.18847656 99 c 0
 1284.53417969 201 1542.89941406 685 1546.83007812 760 c 0
 1549.13574219 804 1535.97460938 820 1497.97460938 820 c 0
 1422.97460938 820 1181.99609375 725 1040.89746094 456 c 0
 859.870117188 112 880 0 786 0 c 2
 702 0 l 2
 658 0 653.51953125 29 654.411132812 46 c 0
EndSplineSet
EndChar

StartChar: n
Encoding: 110 110 23
Width: 1295
VWidth: 18
Flags: HW
LayerCount: 3
Fore
SplineSet
75.0966796875 40 m 0
 76.8779296875 74 189.125 384 350.869140625 818 c 1
 191.869140625 818 l 1
 163.079101562 822 151.126953125 842 152.17578125 862 c 0
 153.380859375 885 171.5859375 908 198.5859375 908 c 2
 512.5859375 908 l 2
 522.5859375 908 560.69140625 910 558.751953125 873 c 0
 558.0703125 860 532.6640625 795 508.572265625 736 c 1
 591.764648438 816 746.896484375 933 943.896484375 933 c 0
 1117.89648438 933 1153.44140625 848 1148.98730469 763 c 0
 1143.01269531 649 927.590820312 183 923.974609375 114 c 0
 923.188476562 99 930.455078125 85 959.455078125 85 c 0
 1048.45507812 85 1154.00097656 229 1173.1015625 250 c 0
 1178.36425781 255 1185.78320312 263 1198.78320312 263 c 1
 1222.57324219 259 1232.73535156 243 1232.00097656 229 c 0
 1230.69140625 204 1087.95214844 -20 871.952148438 -20 c 0
 798.952148438 -20 705.314453125 6 710.764648438 110 c 0
 715.743164062 205 933.48046875 677 938.196289062 767 c 0
 940.397460938 809 915.284179688 845 865.284179688 845 c 0
 771.284179688 845 631.25390625 749 537.908203125 647 c 0
 397.836914062 493 281.830078125 54 261.310546875 25 c 0
 244.052734375 1 219 0 209 0 c 2
 128 0 l 2
 120 0 72.8955078125 -2 75.0966796875 40 c 0
EndSplineSet
EndChar

StartChar: o
Encoding: 111 111 24
Width: 1106
VWidth: 18
Flags: HW
LayerCount: 3
Fore
SplineSet
699.328125 884 m 0
 431.328125 884 282.286132812 368 275.263671875 234 c 0
 271.0703125 154 295.620117188 50 421.620117188 50 c 0
 668.620117188 50 860.01953125 382 877.314453125 712 c 0
 884.44140625 848 819.328125 884 699.328125 884 c 0
56.9755859375 343 m 0
 66.3564453125 522 240.416015625 962 748.416015625 962 c 0
 965.416015625 962 1099.81738281 817 1088.75878906 606 c 0
 1070.15429688 251 741.217773438 -34 440.217773438 -34 c 0
 214.217773438 -34 45.1318359375 117 56.9755859375 343 c 0
EndSplineSet
EndChar

StartChar: p
Encoding: 112 112 25
Width: 794
VWidth: 18
Flags: HW
LayerCount: 3
Fore
SplineSet
505.611328125 794 m 0
 583.611328125 794 637.99609375 725 634.012695312 649 c 0
 629.767578125 568 563.151367188 499 481.151367188 499 c 0
 403.151367188 499 339.400390625 561 343.541015625 640 c 0
 348.362304688 732 423.611328125 794 505.611328125 794 c 0
EndSplineSet
EndChar

StartChar: q
Encoding: 113 113 26
Width: 794
VWidth: 18
Flags: HW
LayerCount: 3
Fore
SplineSet
505.611328125 794 m 0
 583.611328125 794 637.99609375 725 634.012695312 649 c 0
 629.767578125 568 563.151367188 499 481.151367188 499 c 0
 403.151367188 499 339.400390625 561 343.541015625 640 c 0
 348.362304688 732 423.611328125 794 505.611328125 794 c 0
EndSplineSet
EndChar

StartChar: r
Encoding: 114 114 27
Width: 1018
VWidth: 18
Flags: HW
LayerCount: 3
Fore
SplineSet
128.0703125 860 m 0
 130.5859375 908 170.5859375 908 186.5859375 908 c 2
 565.5859375 908 l 1
 602.534179688 907 617.32421875 903 616.328125 884 c 0
 615.123046875 861 589.817382812 817 552.2578125 730 c 1
 651.240234375 806 818.743164062 911 924.743164062 911 c 0
 993.743164062 911 1034.22753906 863 1030.296875 788 c 0
 1025.16113281 690 965.122070312 632 901.122070312 632 c 0
 851.122070312 632 808.11328125 670 811.782226562 740 c 0
 812.515625 754 815.249023438 768 817.930664062 781 c 1
 732.833984375 741 525.122070312 632 412.068359375 402 c 1
 229.100585938 21 277 0 170 0 c 2
 127 0 l 2
 83 0 53 0 55.25390625 43 c 0
 55.830078125 54 56.8828125 55 72.083984375 97 c 1
 366.869140625 818 l 1
 169.869140625 818 l 1
 137.026367188 821 127.075195312 841 128.0703125 860 c 0
EndSplineSet
EndChar

StartChar: s
Encoding: 115 115 28
Width: 853
VWidth: 18
Flags: HW
LayerCount: 3
Fore
SplineSet
150.084960938 326 m 0
 194.084960938 326 259.774414062 301 252.227539062 157 c 0
 249.607421875 107 254.14453125 60 353.14453125 60 c 0
 438.14453125 60 548.764648438 110 552.6953125 185 c 0
 560.766601562 339 233.326171875 426 244.436523438 638 c 0
 249.100585938 727 342.000976562 935 587.000976562 935 c 0
 725.000976562 935 843.965820312 858 837.939453125 743 c 0
 835.318359375 693 805.22265625 653 762.22265625 653 c 0
 621.22265625 653 700.126953125 842 552.126953125 842 c 0
 479.126953125 842 415.345703125 808 413.14453125 766 c 0
 408.217773438 672 751.623046875 508 740.145507812 289 c 0
 732.232421875 138 580.008789062 -38 336.008789062 -38 c 0
 138.008789062 -38 26.8212890625 92 33.005859375 210 c 0
 36.6220703125 279 93.0849609375 326 150.084960938 326 c 0
EndSplineSet
EndChar

